<svg xmlns="http://www.w3.org/2000/svg" viewBox="0 0 388.18 106.07"><defs><style>.cls-1{font-size:95.45px;font-family:BebasNeuePro-Bold, Bebas Neue Pro;font-weight:700;}.cls-2{letter-spacing:-0.01em;}.cls-3{letter-spacing:0em;}</style></defs><g id="Layer_2" data-name="Layer 2"><g id="Banner"><path d="M30.82,65.9l47,17.51a1.07,1.07,0,0,1,.12,2L39.38,105.79a1.08,1.08,0,0,1-1.55-.72L29.4,67.14A1.07,1.07,0,0,1,30.82,65.9Z"/><path d="M31.92,59.75,73.39,27a1.08,1.08,0,0,1,1.73.69l7.42,50.92a1.08,1.08,0,0,1-1.44,1.16L32.21,61.6A1.07,1.07,0,0,1,31.92,59.75Z"/><path d="M24.16,11.79,69.27,22.33a1.07,1.07,0,0,1,.42,1.88L29.19,56.15a1.07,1.07,0,0,1-1.73-.73L22.85,13A1.08,1.08,0,0,1,24.16,11.79Z"/><path d="M35.45,7.69,73,0a1.07,1.07,0,0,1,1.28,1.05V17.51a1.06,1.06,0,0,1-1.31,1L35.42,9.78A1.07,1.07,0,0,1,35.45,7.69Z"/><path d="M19.2,21.14l4.05,37.31a1.06,1.06,0,0,1-1,1.18L1.15,61.08a1.08,1.08,0,0,1-1.06-1.5L17.16,20.82A1.07,1.07,0,0,1,19.2,21.14Z"/><path d="M84.93,88.09l4.29,10a1.07,1.07,0,0,1-.82,1.48l-32.69,5a1.07,1.07,0,0,1-.67-2l28.4-15A1.07,1.07,0,0,1,84.93,88.09Z"/><path d="M2.71,65.49l20.46-1.4a1.08,1.08,0,0,1,1.12.84l7.28,32.79a1.07,1.07,0,0,1-1.85,1L2,67.27A1.07,1.07,0,0,1,2.71,65.49Z"/><path d="M81.38,27.28l30.26,18.28a1.07,1.07,0,0,1,.29,1.58L88.6,76.46a1.08,1.08,0,0,1-1.9-.52L79.77,28.35A1.07,1.07,0,0,1,81.38,27.28Z"/><path d="M78.78,19.82V6.36a1.07,1.07,0,0,1,1.9-.68l21.54,26.48a1.07,1.07,0,0,1-1.39,1.59l-21.54-13A1.06,1.06,0,0,1,78.78,19.82Z"/><path d="M88.58,83.73l14.47-18.18a1.07,1.07,0,0,1,1.83,1.08L93.93,93a1.07,1.07,0,0,1-2,0l-3.52-8.21A1.07,1.07,0,0,1,88.58,83.73Z"/><text class="cls-1" transform="translate(135.72 86.98)">h<tspan class="cls-2" x="37.13" y="0">e</tspan><tspan class="cls-3" x="71.68" y="0">x</tspan><tspan x="107.38" y="0">agon</tspan></text></g></g></svg>