<svg xmlns="http://www.w3.org/2000/svg" viewBox="0 0 114.6 103.25"><defs><style>.cls-1{fill:none;stroke:#000;stroke-linecap:round;stroke-linejoin:round;stroke-width:9.73px;}</style></defs><g id="Layer_2" data-name="Layer 2"><g id="graphic_element" data-name="graphic element"><path d="M43.23,58.84l26.19,9.75a.6.6,0,0,1,.07,1.09L48,81.06a.61.61,0,0,1-.87-.4L42.44,59.53A.59.59,0,0,1,43.23,58.84Z"/><path d="M43.84,55.41l23.1-18.22a.61.61,0,0,1,1,.38L72,65.94a.6.6,0,0,1-.8.64L44,56.44A.6.6,0,0,1,43.84,55.41Z"/><path d="M39.52,28.69l25.13,5.87a.59.59,0,0,1,.23,1L42.32,53.41a.6.6,0,0,1-1-.41L38.79,29.34A.6.6,0,0,1,39.52,28.69Z"/><path d="M45.81,26.41l20.9-4.27a.59.59,0,0,1,.72.58v9.16a.6.6,0,0,1-.73.58L45.79,27.58A.6.6,0,0,1,45.81,26.41Z"/><path d="M36.75,33.9,39,54.68a.59.59,0,0,1-.55.66l-11.76.81a.6.6,0,0,1-.59-.84l9.5-21.59A.6.6,0,0,1,36.75,33.9Z"/><path d="M73.37,71.2l2.39,5.59a.59.59,0,0,1-.45.82L57.09,80.4a.59.59,0,0,1-.37-1.11l15.82-8.38A.6.6,0,0,1,73.37,71.2Z"/><path d="M27.56,58.61,39,57.83a.61.61,0,0,1,.63.47l4.06,18.27a.6.6,0,0,1-1,.52L27.16,59.6A.6.6,0,0,1,27.56,58.61Z"/><path d="M71.4,37.32,88.25,47.51a.59.59,0,0,1,.16.88l-13,16.33a.6.6,0,0,1-1.06-.29L70.5,37.92A.6.6,0,0,1,71.4,37.32Z"/><path d="M69.94,33.17v-7.5A.6.6,0,0,1,71,25.29L83,40a.6.6,0,0,1-.78.89l-12-7.25A.6.6,0,0,1,69.94,33.17Z"/><path d="M75.41,68.77l8.06-10.13a.6.6,0,0,1,1,.6L78.39,74a.6.6,0,0,1-1.1,0l-2-4.57A.59.59,0,0,1,75.41,68.77Z"/><path class="cls-1" d="M36.13,98.39H78.47a10.09,10.09,0,0,0,8.74-5l21.17-36.67a10.1,10.1,0,0,0,0-10.09L87.21,9.91a10.08,10.08,0,0,0-8.74-5H36.13a10.08,10.08,0,0,0-8.74,5L6.22,46.58a10.1,10.1,0,0,0,0,10.09L27.39,93.34A10.09,10.09,0,0,0,36.13,98.39Z"/></g></g></svg>